<svg xmlns="http://www.w3.org/2000/svg" viewBox="0 0 90 66.4"><defs><style>.cls-1{fill:#d9fcec;}.cls-2{fill:#fff;}.cls-3{fill:#d2eade;}.cls-4{fill:#dfeff4;}.cls-5{fill:#e4f4f0;}.cls-6{fill:#26af8b;}.cls-7{fill:#145b47;}</style></defs><g id="Layer_2" data-name="Layer 2"><g id="Layer_1-2" data-name="Layer 1"><path class="cls-1" d="M90,24.53a7.67,7.67,0,0,1-7.67,7.67h-30a7.68,7.68,0,1,1,0-15.35H82.33A7.68,7.68,0,0,1,90,24.53ZM23.17,32.2H7.67a7.68,7.68,0,0,1,0-15.35h15.5a7.68,7.68,0,0,1,0,15.35ZM69.43,49.59a7.68,7.68,0,0,1-7.68,7.68H23.09a7.68,7.68,0,0,1,0-15.35H61.75A7.68,7.68,0,0,1,69.43,49.59Z"/><polyline class="cls-2" points="18.17 21.94 18.17 45.07 20.58 49.32 40.66 60.91 46.37 60.91 66.33 49.38 66.34 49.38 68.85 44.65 68.85 21.94 66.32 17.21 46.15 5.56 40.88 5.56 20.7 17.21"/><circle class="cls-3" cx="76.14" cy="5.92" r="1.5"/><circle class="cls-3" cx="14.64" cy="5.25" r="3.07"/><circle class="cls-4" cx="73.74" cy="64.78" r="1.61"/><circle class="cls-5" cx="7.31" cy="48.98" r="3.46"/><circle class="cls-6" cx="43.33" cy="33" r="18.17"/><circle class="cls-2" cx="43.34" cy="33" r="14.33"/><path class="cls-7" d="M69.85,43.78v-21a4,4,0,1,0-3.72-6.86L47.38,5.12A3.87,3.87,0,0,0,47.55,4a4,4,0,0,0-8.08,0,3.87,3.87,0,0,0,.17,1.08L20.9,15.94a4,4,0,1,0-3.73,6.86V44.11a4,4,0,1,0,3.73,6.55L39.53,61.41a3.31,3.31,0,0,0-.06.55,4,4,0,0,0,8.08,0,3.19,3.19,0,0,0-.06-.54L66.14,50.65a4,4,0,0,0,2.71,1.07,4,4,0,0,0,1-7.94Zm-4.1,1.34L60.4,41.68A19,19,0,0,0,60.71,25l5.21-3.3a4,4,0,0,0,1.93,1.14v21A4,4,0,0,0,65.75,45.12ZM43.33,50.17A17.17,17.17,0,1,1,60.5,33,17.19,17.19,0,0,1,43.33,50.17ZM19.17,44.29V22.8a4.08,4.08,0,0,0,1.93-1.14L26,24.83a19,19,0,0,0,.36,17.07l-5.55,3.52A4.07,4.07,0,0,0,19.17,44.29ZM68.85,16.86a2,2,0,0,1,0,4.08h0a2,2,0,1,1,0-4.08ZM65,17.62a3.77,3.77,0,0,0,.07,2.77L60,23.62a19.17,19.17,0,0,0-15.77-9.74V8a4,4,0,0,0,2.13-1.14ZM43.51,2a2,2,0,1,1-2,2A2,2,0,0,1,43.51,2Zm-.75,6v5.86a19.18,19.18,0,0,0-16,9.63L21.91,20.4A3.79,3.79,0,0,0,22,17.62L40.63,6.86A4,4,0,0,0,42.76,8ZM16.13,18.9a2,2,0,1,1,2,2h0A2,2,0,0,1,16.13,18.9Zm1.69,31.22a2,2,0,1,1,2-2A2,2,0,0,1,17.82,50.12Zm4-1.26a4.92,4.92,0,0,0,.07-.78,4.27,4.27,0,0,0-.25-1.38l5.53-3.51a19.17,19.17,0,0,0,15.63,9V58a4,4,0,0,0-2.47,1.55ZM43.51,64a2,2,0,1,1,2-2A2,2,0,0,1,43.51,64Zm.75-6V52.12A19.17,19.17,0,0,0,59.66,43L65,46.44a3.89,3.89,0,0,0-.22,1.24A4,4,0,0,0,65.05,49L46.73,59.55A4,4,0,0,0,44.26,58Zm24.59-8.28a2,2,0,0,1,0-4.08h0a2,2,0,0,1,0,4.08Z"/><path class="cls-6" d="M39.45,38.9a1.48,1.48,0,0,0,.36.24,4,4,0,0,0,.58.25c.23.07.5.15.79.22s.62.12,1,.17l-.25,2.34a.22.22,0,0,0,0,.16.18.18,0,0,0,.11.1,1,1,0,0,0,.24.07,2.1,2.1,0,0,0,.4,0l.35,0,.21-.06a.3.3,0,0,0,.1-.09.65.65,0,0,0,0-.13l.24-2.35a6.63,6.63,0,0,0,2-.36A4.46,4.46,0,0,0,47,38.66,3.67,3.67,0,0,0,48,37.45a3.88,3.88,0,0,0,.33-1.58,3.51,3.51,0,0,0-.3-1.53,3.18,3.18,0,0,0-.77-1.05,4.54,4.54,0,0,0-1.1-.72c-.41-.18-.84-.36-1.26-.51l-1.26-.44a4.86,4.86,0,0,1-1.1-.52,2.52,2.52,0,0,1-.78-.74,1.85,1.85,0,0,1-.29-1.08,2,2,0,0,1,.14-.78,1.53,1.53,0,0,1,.46-.62,2.26,2.26,0,0,1,.84-.39,4.43,4.43,0,0,1,1.24-.15,4.11,4.11,0,0,1,1.15.15,7.47,7.47,0,0,1,.91.3,5.38,5.38,0,0,1,.66.3.89.89,0,0,0,.38.15.24.24,0,0,0,.13,0,.22.22,0,0,0,.08-.13,1.11,1.11,0,0,0,.05-.24c0-.11,0-.22,0-.36a2.66,2.66,0,0,0,0-.3,1.24,1.24,0,0,0,0-.22,1.22,1.22,0,0,0-.05-.17.5.5,0,0,0-.14-.16,1,1,0,0,0-.34-.21,3.26,3.26,0,0,0-.56-.23A5.23,5.23,0,0,0,45.7,26a3.46,3.46,0,0,0-.67-.11l.23-2.16a.81.81,0,0,0,0-.16.23.23,0,0,0-.11-.11.62.62,0,0,0-.24-.07,2.18,2.18,0,0,0-.39,0l-.36,0a.58.58,0,0,0-.21.06.36.36,0,0,0-.11.1l0,.13-.22,2.19a5.66,5.66,0,0,0-1.76.36,4,4,0,0,0-1.26.76,3.24,3.24,0,0,0-.74,1.1,3.82,3.82,0,0,0-.25,1.36A3.28,3.28,0,0,0,40.63,32a4.39,4.39,0,0,0,1.09.72c.41.19.83.37,1.24.52l1.24.44a5.26,5.26,0,0,1,1.09.53,2.77,2.77,0,0,1,.78.74A1.83,1.83,0,0,1,46.36,36a1.94,1.94,0,0,1-.79,1.64,3.76,3.76,0,0,1-2.33.61,6.26,6.26,0,0,1-1.48-.16,7.84,7.84,0,0,1-1-.35,7.15,7.15,0,0,1-.69-.35.87.87,0,0,0-.41-.17.4.4,0,0,0-.17,0,.31.31,0,0,0-.12.15,1.15,1.15,0,0,0-.06.25,2.36,2.36,0,0,0,0,.4,2.17,2.17,0,0,0,0,.51A.54.54,0,0,0,39.45,38.9Z"/><path class="cls-7" d="M43.31,45.32A12.35,12.35,0,1,0,31,33,12.37,12.37,0,0,0,43.31,45.32Zm0-23.51A11.16,11.16,0,1,1,32.15,33,11.17,11.17,0,0,1,43.31,21.81Z"/></g></g></svg>