<svg xmlns="http://www.w3.org/2000/svg" viewBox="0 0 76.08 76.08"><defs><style>.cls-1{fill:#26af8b;}.cls-2{fill:#fff;}.cls-3{fill:#145b47;}</style></defs><g id="Layer_2" data-name="Layer 2"><g id="Layer_1-2" data-name="Layer 1"><circle class="cls-1" cx="38.04" cy="38.04" r="38.04"/><polyline class="cls-2" points="13.74 27.27 13.74 50.4 16.12 54.65 35.93 66.24 41.57 66.24 61.27 54.71 61.28 54.71 63.76 49.97 63.76 27.27 61.26 22.54 41.35 10.89 36.15 10.89 16.24 22.54"/><ellipse class="cls-1" cx="38.58" cy="38.33" rx="17.93" ry="18.17"/><ellipse class="cls-2" cx="38.58" cy="38.32" rx="14.14" ry="14.33"/><path class="cls-3" d="M64.75,49.11v-21a4,4,0,0,0-1-7.94,3.9,3.9,0,0,0-2.69,1.08L42.57,10.45a3.93,3.93,0,0,0,.17-1.08,4,4,0,1,0-8,0,3.93,3.93,0,0,0,.17,1.08L16.43,21.27a4,4,0,0,0-2.69-1.08,4,4,0,0,0-1,7.94V49.44a4,4,0,0,0,.64,8,4,4,0,0,0,3-1.46L34.82,66.74a3.31,3.31,0,0,0-.06.55,4,4,0,1,0,8,0,3.31,3.31,0,0,0-.06-.55L61.08,56a3.93,3.93,0,0,0,2.68,1.07,4,4,0,0,0,1-7.94Zm-4,1.34L55.42,47a19.19,19.19,0,0,0,.3-16.72L60.87,27a3.94,3.94,0,0,0,1.91,1.15v21A4,4,0,0,0,60.7,50.45Zm-22.12,5A17.17,17.17,0,1,1,55.52,38.33,17.07,17.07,0,0,1,38.58,55.49ZM14.73,49.62V28.13A4,4,0,0,0,16.63,27l4.86,3.17a19.21,19.21,0,0,0,.35,17.07l-5.48,3.51A4,4,0,0,0,14.73,49.62Zm49-27.43a2,2,0,0,1,0,4.08h0a2,2,0,0,1,0-4.08ZM60,23a4.19,4.19,0,0,0-.22,1.28,3.88,3.88,0,0,0,.29,1.49l-5,3.22a18.89,18.89,0,0,0-15.56-9.73V13.33a4,4,0,0,0,2.11-1.14ZM38.75,7.33a2,2,0,1,1-2,2A2,2,0,0,1,38.75,7.33Zm-.74,6v5.86a18.88,18.88,0,0,0-15.83,9.63l-4.75-3.09a3.93,3.93,0,0,0,.29-1.5A4.19,4.19,0,0,0,17.5,23L35.91,12.19A4,4,0,0,0,38,13.33ZM11.73,24.23a2,2,0,1,1,2,2h0A2,2,0,0,1,11.73,24.23Zm1.66,31.22a2,2,0,1,1,2-2A2,2,0,0,1,13.39,55.45Zm3.91-1.26a4,4,0,0,0,.07-.78A3.93,3.93,0,0,0,17.12,52l5.47-3.51A18.81,18.81,0,0,0,38,57.46v5.87a4,4,0,0,0-2.43,1.54ZM38.75,69.33a2,2,0,1,1,2-2A2,2,0,0,1,38.75,69.33Zm.74-6V57.45a18.89,18.89,0,0,0,15.2-9.13L60,51.77A3.89,3.89,0,0,0,59.78,53,4,4,0,0,0,60,54.3L41.93,64.88A4,4,0,0,0,39.49,63.33Zm24.27-8.28a2,2,0,0,1,0-4.08h0a2,2,0,0,1,0,4.08Z"/><path class="cls-1" d="M34.74,44.22a1.38,1.38,0,0,0,.35.25,4,4,0,0,0,.58.25c.23.07.49.15.78.21a8.1,8.1,0,0,0,.95.17l-.24,2.35a.22.22,0,0,0,0,.16.22.22,0,0,0,.11.1.87.87,0,0,0,.24.07,1.92,1.92,0,0,0,.39,0l.35,0,.2-.06a.22.22,0,0,0,.1-.09.65.65,0,0,0,0-.13l.24-2.35a6.76,6.76,0,0,0,1.93-.36A4.36,4.36,0,0,0,42.23,44a3.58,3.58,0,0,0,.93-1.22,3.8,3.8,0,0,0,.32-1.57,3.48,3.48,0,0,0-.29-1.53,3.3,3.3,0,0,0-.76-1.06,4.27,4.27,0,0,0-1.09-.71c-.4-.19-.82-.36-1.24-.51L38.85,37a6,6,0,0,1-1.08-.52,2.6,2.6,0,0,1-.77-.74,1.93,1.93,0,0,1-.29-1.08,2.16,2.16,0,0,1,.14-.78,1.55,1.55,0,0,1,.46-.62,2.41,2.41,0,0,1,.82-.4,4.84,4.84,0,0,1,1.23-.14,4.45,4.45,0,0,1,1.14.14,7.16,7.16,0,0,1,.9.31,5.67,5.67,0,0,1,.64.3.84.84,0,0,0,.38.14.33.33,0,0,0,.13,0,.27.27,0,0,0,.08-.14.89.89,0,0,0,0-.23c0-.11,0-.22,0-.36a2.66,2.66,0,0,0,0-.3,1.24,1.24,0,0,0,0-.22c0-.07,0-.13,0-.18a.87.87,0,0,0-.14-.16,1.06,1.06,0,0,0-.33-.2,2.75,2.75,0,0,0-.55-.23,4.24,4.24,0,0,0-.66-.18,4.41,4.41,0,0,0-.66-.12L40.48,29a.77.77,0,0,0,0-.15.18.18,0,0,0-.1-.11.63.63,0,0,0-.23-.07,2.36,2.36,0,0,0-.4,0l-.35,0a.58.58,0,0,0-.21.06.32.32,0,0,0-.1.1A.65.65,0,0,0,39,29l-.21,2.18a5.74,5.74,0,0,0-1.74.37,3.72,3.72,0,0,0-1.24.76,3.14,3.14,0,0,0-.74,1.1,3.78,3.78,0,0,0-.24,1.36,3.54,3.54,0,0,0,.29,1.53,3.3,3.3,0,0,0,.76,1.05,4.19,4.19,0,0,0,1.07.72c.41.2.82.37,1.23.53l1.22.44a5.17,5.17,0,0,1,1.08.53,2.87,2.87,0,0,1,.77.74,1.86,1.86,0,0,1,.29,1.06A2,2,0,0,1,40.78,43a3.67,3.67,0,0,1-2.3.61A6.08,6.08,0,0,1,37,43.46a8.17,8.17,0,0,1-1-.35,5.54,5.54,0,0,1-.67-.36,1,1,0,0,0-.41-.17.31.31,0,0,0-.17,0,.26.26,0,0,0-.11.14,1.38,1.38,0,0,0-.07.26,2.3,2.3,0,0,0,0,.4,2.17,2.17,0,0,0,.05.51A.54.54,0,0,0,34.74,44.22Z"/><path class="cls-3" d="M38.55,50.65A12.36,12.36,0,1,0,26.36,38.3,12.29,12.29,0,0,0,38.55,50.65Zm0-23.52a11.17,11.17,0,1,1-11,11.17A11.11,11.11,0,0,1,38.55,27.13Z"/></g></g></svg>