<svg xmlns="http://www.w3.org/2000/svg" viewBox="0 0 90 66.4"><defs><style>.cls-1{fill:#d9fcec;}.cls-2{fill:#fff;}.cls-3{fill:#d2eade;}.cls-4{fill:#dfeff4;}.cls-5{fill:#e4f4f0;}.cls-6{fill:#26af8b;}.cls-7{fill:#145b47;}</style></defs><g id="Layer_2" data-name="Layer 2"><g id="Layer_1-2" data-name="Layer 1"><path class="cls-1" d="M90,24.53a7.67,7.67,0,0,1-7.67,7.67h-30a7.68,7.68,0,1,1,0-15.35H82.33A7.68,7.68,0,0,1,90,24.53ZM23.17,32.2H7.67a7.68,7.68,0,0,1,0-15.35h15.5a7.68,7.68,0,0,1,0,15.35ZM69.43,49.59a7.68,7.68,0,0,1-7.68,7.68H23.09a7.68,7.68,0,0,1,0-15.35H61.75A7.68,7.68,0,0,1,69.43,49.59Z"/><polyline class="cls-2" points="18.17 21.94 18.17 45.07 20.58 49.32 40.66 60.91 46.37 60.91 66.33 49.38 66.34 49.38 68.85 44.65 68.85 21.94 66.32 17.21 46.15 5.56 40.88 5.56 20.7 17.21"/><circle class="cls-3" cx="76.14" cy="5.92" r="1.5"/><circle class="cls-3" cx="14.64" cy="5.25" r="3.07"/><circle class="cls-4" cx="73.74" cy="64.78" r="1.61"/><circle class="cls-5" cx="7.31" cy="48.98" r="3.46"/><circle class="cls-6" cx="43.33" cy="33" r="18.17"/><circle class="cls-2" cx="43.33" cy="33" r="13.32"/><path class="cls-6" d="M50.3,26.38a4,4,0,0,0-5.48,0,3.87,3.87,0,0,0-.48,4.9l-4.85,4.85-.67-.67a.75.75,0,1,0-1.07,1.06l.68.67-.7.7-1.22-1.21a.74.74,0,0,0-1.06,0,.75.75,0,0,0,0,1.06L36.67,39l-.52.52a.75.75,0,0,0,0,1.06.74.74,0,0,0,1.06,0l8.19-8.19a3.88,3.88,0,0,0,4.9-6ZM49.24,30.8a2.43,2.43,0,0,1-3.36,0,2.38,2.38,0,1,1,3.36,0Z"/><path class="cls-7" d="M69.85,43.78v-21a4,4,0,1,0-3.72-6.86L47.38,5.12A3.87,3.87,0,0,0,47.55,4a4,4,0,0,0-8.08,0,3.87,3.87,0,0,0,.17,1.08L20.9,15.94a4,4,0,1,0-3.73,6.86V44.11a4,4,0,1,0,3.73,6.55L39.53,61.41a3.31,3.31,0,0,0-.06.55,4,4,0,0,0,8.08,0,3.19,3.19,0,0,0-.06-.54L66.14,50.65a4,4,0,0,0,2.71,1.07,4,4,0,0,0,1-7.94Zm-4.1,1.34L60.4,41.68A19,19,0,0,0,60.71,25l5.21-3.3a4,4,0,0,0,1.93,1.14v21A4,4,0,0,0,65.75,45.12ZM43.33,50.17A17.17,17.17,0,1,1,60.5,33,17.19,17.19,0,0,1,43.33,50.17ZM19.17,44.29V22.8a4.08,4.08,0,0,0,1.93-1.14L26,24.83a19,19,0,0,0,.36,17.07l-5.55,3.52A4.07,4.07,0,0,0,19.17,44.29ZM68.85,16.86a2,2,0,0,1,0,4.08h0a2,2,0,1,1,0-4.08ZM65,17.62a3.77,3.77,0,0,0,.07,2.77L60,23.62a19.17,19.17,0,0,0-15.77-9.74V8a4,4,0,0,0,2.13-1.14ZM43.51,2a2,2,0,1,1-2,2A2,2,0,0,1,43.51,2Zm-.75,6v5.86a19.18,19.18,0,0,0-16,9.63L21.91,20.4A3.79,3.79,0,0,0,22,17.62L40.63,6.86A4,4,0,0,0,42.76,8ZM16.13,18.9a2,2,0,1,1,2,2h0A2,2,0,0,1,16.13,18.9Zm1.69,31.22a2,2,0,1,1,2-2A2,2,0,0,1,17.82,50.12Zm4-1.26a4.92,4.92,0,0,0,.07-.78,4.27,4.27,0,0,0-.25-1.38l5.53-3.51a19.17,19.17,0,0,0,15.63,9V58a4,4,0,0,0-2.47,1.55ZM43.51,64a2,2,0,1,1,2-2A2,2,0,0,1,43.51,64Zm.75-6V52.12A19.17,19.17,0,0,0,59.66,43L65,46.44a3.89,3.89,0,0,0-.22,1.24A4,4,0,0,0,65.05,49L46.73,59.55A4,4,0,0,0,44.26,58Zm24.59-8.28a2,2,0,0,1,0-4.08h0a2,2,0,0,1,0,4.08Z"/></g></g></svg>